<svg xmlns="http://www.w3.org/2000/svg" width="406.068" height="476.036"
    viewBox="0 0 406.068 476.036">
    <path id="Path_19" data-name="Path 19"
        d="M539.28,331.52a16.8,16.8,0,0,0-19.6,12.879c-13.441,66.082-58.238,115.92-120.4,133.28-99.121,28-189.84-38.641-212.8-118.72s19.6-184.24,118.72-212.24a167.428,167.428,0,0,1,66.641-5.039l-26.32,63.84a15.128,15.128,0,0,0,2.242,16.8A16.808,16.808,0,0,0,364,228.481L509.04,199.36a16.238,16.238,0,0,0,12.32-10.078,15.688,15.688,0,0,0-1.68-15.68L439.6,49.842A17.368,17.368,0,0,0,423.922,42a16.236,16.236,0,0,0-14,10.641L385.84,109.764a212.815,212.815,0,0,0-90.16,4.477C177.52,147.842,127.12,272.72,154,368.48,176.961,448.558,257.6,518,352.8,518a216.6,216.6,0,0,0,55.438-7.84c74.48-21.281,128.24-80.641,144.48-159.04a16.8,16.8,0,0,0-13.437-19.6Z"
        transform="translate(-146.937 -41.965)" fill="#bfbfbf" />
</svg>
  