<svg xmlns="http://www.w3.org/2000/svg" width="475.986" height="476.036"
    viewBox="0 0 475.986 476.036">
    <g id="Group_24" data-name="Group 24" transform="translate(-393.793 -2203)">
        <path id="Path_20" data-name="Path 20"
            d="M479.59,384.521c71.549-84.293,67.475-211.309-12.012-290.793-83.77-83.77-220.076-83.77-303.847,0s-83.77,220.076,0,303.847a215.273,215.273,0,0,0,290.9,12.117l92.021,92.021a17.726,17.726,0,1,0,25.068-25.068ZM188.8,372.509c-69.982-69.982-69.982-183.729,0-253.711a179.668,179.668,0,0,1,253.606-.1c69.982,69.982,69.982,183.519,0,253.5v.1a179.541,179.541,0,0,1-253.606.209Z"
            transform="translate(292.891 2172.099)" fill="#bfbfbf" />
        <path id="Path_21" data-name="Path 21"
            d="M391.871,234.021H339.54V181.378a17.757,17.757,0,1,0-35.514,0v52.644H251.383a17.757,17.757,0,0,0,0,35.514h52.643v52.33a17.757,17.757,0,1,0,35.514,0v-52.33h52.33a17.757,17.757,0,0,0,0-35.514Z"
            transform="translate(286.916 2166.125)" fill="#bfbfbf" />
    </g>
</svg>
  